<svg id="Capa_1" data-name="Capa 1" xmlns="http://www.w3.org/2000/svg" viewBox="0 0 413.85 416.08"><defs><style>.cls-1{fill:#fff;}</style></defs><title>logo copia</title><path d="M413.85,208.18c0,115.29-92.34,208-207.06,207.9S0,323.27,0,207.9,92.34-.06,207.07,0,413.89,92.82,413.85,208.18ZM67.13,219.72v55.12c17.57-4.38,17.57-4.38,17.58-20.38V227.22c13.59,11.91,30.16,18.18,26.36,38.08h13.84V204.68H111.17c-.43,6.54-.81,12.26-1.31,19.75-5.51-4.73-10.18-7.82-13.69-11.9C82.61,196.77,65.45,200,49,204.28c-12.77,3.32-19.61,18.2-16.27,30.42,3.89,14.23,15,21.55,29.25,18.89v-13L59,242.32c-3.7-5.24-10.73-10.71-10.37-15.66C49.31,217.51,58.15,218.34,67.13,219.72Zm221.33-13.79c19.35-6.47,19.83-7.11,19.84-24.23V118.35H289.55c-.45,6.39-.85,12.17-1.27,18.08H271.52c-.35-6.75-.64-12.49-.92-17.81H253.13v50.76h17.49c.56-5.64,1.07-10.69,1.63-16.23h16.21Zm-6,58.42c3.18,19.77,17.54,29.33,32.44,25.79,15.43-3.67,26.37-19.93,21.8-33.45-1.61-4.74-5.61-8.62-8.16-13.11-2.25-4-4-8.25-6-12.39,4.19-.82,8.35-2.16,12.57-2.36,8.05-.38,16.14-.11,24.15-.11.35-17.13.35-17.14-14.42-17.16-8.17,0-16.61-1.22-24.44.41-6.19,1.29-14.43,4.81-16.66,9.68s.55,13.3,3.29,19.15c3.08,6.57,9.71,11.53,12.55,18.15,1.53,3.54-.31,10.47-3.17,13.32-2.14,2.14-8.54,1-12.68,0C297.32,270.53,291.18,267.65,282.47,264.35ZM315.9,119c0,18.43-.07,35.84,0,53.24.13,25.56,15.3,37.33,43.76,31.38-3-5.1-4.7-12-8.47-13.5-16.7-6.5-21.32-14.65-15.64-33.42h28C358.46,147.5,353.22,142,342.94,143c-3,.31-6.34-2.64-9.52-4.1,3.31-1.71,6.47-3.87,10-5,2.95-.94,6.29-.65,10.49-1-1.21-5.32-2.16-9.51-3.17-14Zm-70.62-1.07c-15.9,0-30.73-.62-45.49.18-15,.8-24.45,13.16-23.22,28.46,1.17,14.54,12.88,23.81,29.2,22.44V155c-8-1.67-16.1-4.07-13.09-14.06,3.11-10.32,12-6.83,20.62-6.89V169.6h18.08V134.78l13.9-2.11ZM147.42,247l16.79,1.1v18h13.62c0-15,1.27-29.21-.36-43.08-1.58-13.51-10.91-20.27-22.78-19.95-11.55.31-20.24,7-21.55,20.06-1.44,14.22-.33,28.69-.33,43.16h14.61Zm54,19.45V236.81c17.4,4.11,13.58,17.91,14.68,29.54h14v-58.5h-12.9c-.75,4.81-1.39,8.92-2.16,13.92-9.38-6.29-14.49-19.26-28.11-12.46v57.13Zm92-26.27c.21-18.26-11.53-32.31-26.82-32.12-14.64.18-26.73,14.45-26.73,31.53s12.13,31.36,26.72,31.51C281.54,271.25,293.22,257.78,293.42,240.17ZM151.5,173.43c-22.58,9.6-23.15,9.54-40-5-9.92-8.59-23.17-9.8-34-3.12-9.88,6.08-13.45,16.45-10.2,30.39H82.46c.26-2.44.07-4.39.72-6,1.81-4.49,3-11.12,6.26-12.57,3-1.32,8.92,2.43,12.85,5,4.58,3,7.94,9.46,12.64,10.4,9.72,2,20.55,3.28,29.72.66C148.5,192.08,149.31,180.33,151.5,173.43ZM186,203.32c6-2.38,12.54-2.91,14.69-6.28,5.71-9,9.94-7.72,16.33-1.08,7.45,7.75,17.92,7.76,25.65,2.85,4.21-2.68,4.09-12.14,5.93-18.55l-2.92-1.45c-8,5.14-16.1,11.22-25,2.71-7.3-7-15.3-9.07-24.36-4.25S184.66,190.12,186,203.32Z"/><path class="cls-1" d="M67.13,219.72c-9-1.38-17.82-2.21-18.47,6.94-.36,5,6.67,10.42,10.37,15.66L62,240.57v13c-14.24,2.66-25.36-4.66-29.25-18.89-3.34-12.22,3.5-27.1,16.27-30.42,16.46-4.28,33.62-7.51,47.18,8.25,3.51,4.08,8.18,7.17,13.69,11.9.5-7.49.88-13.21,1.31-19.75h13.74V265.3H111.07c3.8-19.9-12.77-26.17-26.36-38.08v27.24c0,16,0,16-17.58,20.38Z"/><path class="cls-1" d="M288.46,205.93V153.15H272.25c-.56,5.54-1.07,10.59-1.63,16.23H253.13V118.62H270.6c.28,5.32.57,11.06.92,17.81h16.76c.42-5.91.82-11.69,1.27-18.08H308.3V181.7C308.29,198.82,307.81,199.46,288.46,205.93Z"/><path class="cls-1" d="M282.47,264.35c8.71,3.3,14.85,6.18,21.3,7.87,4.14,1.08,10.54,2.19,12.68,0,2.86-2.85,4.7-9.78,3.17-13.32-2.84-6.62-9.47-11.58-12.55-18.15-2.74-5.85-5.55-14.21-3.29-19.15s10.47-8.39,16.66-9.68c7.83-1.63,16.27-.42,24.44-.41,14.77,0,14.77,0,14.42,17.16-8,0-16.1-.27-24.15.11-4.22.2-8.38,1.54-12.57,2.36,2,4.14,3.72,8.41,6,12.39,2.55,4.49,6.55,8.37,8.16,13.11,4.57,13.52-6.37,29.78-21.8,33.45C300,293.68,285.65,284.12,282.47,264.35Z"/><path class="cls-1" d="M315.9,119h34.81c1,4.46,2,8.65,3.17,14-4.2.34-7.54,0-10.49,1-3.5,1.11-6.66,3.27-10,5,3.18,1.46,6.52,4.41,9.52,4.1,10.28-1.08,15.52,4.47,20.65,13.66h-28c-5.68,18.77-1.06,26.92,15.64,33.42,3.77,1.48,5.43,8.4,8.47,13.5-28.46,5.95-43.63-5.82-43.76-31.38C315.83,154.83,315.9,137.42,315.9,119Z"/><path class="cls-1" d="M245.28,117.92v14.75l-13.9,2.11V169.6H213.3V134.05c-8.59.06-17.51-3.43-20.62,6.89-3,10,5.14,12.39,13.09,14.06v14c-16.32,1.37-28-7.9-29.2-22.44-1.23-15.3,8.26-27.66,23.22-28.46C214.55,117.3,229.38,117.92,245.28,117.92Z"/><path class="cls-1" d="M147.42,247v19.28H132.81c0-14.47-1.11-28.94.33-43.16,1.31-13,10-19.75,21.55-20.06,11.87-.32,21.2,6.44,22.78,19.95,1.63,13.87.36,28.07.36,43.08H164.21v-18Zm18.42-14.42c-2.27-5.72-3.4-10.61-6.12-14.32-.95-1.3-7.59-.83-8.56.74-2.35,3.79-2.89,8.7-4.27,13.58Z"/><path class="cls-1" d="M201.44,266.44H186.92V209.31c13.62-6.8,18.73,6.17,28.11,12.46.77-5,1.41-9.11,2.16-13.92h12.9v58.5h-14c-1.1-11.63,2.72-25.43-14.68-29.54Z"/><path class="cls-1" d="M293.42,240.17c-.2,17.61-11.88,31.08-26.83,30.92-14.59-.15-26.71-14.46-26.72-31.51S252,208.23,266.6,208.05C281.89,207.86,293.63,221.91,293.42,240.17Zm-15.75-.73c-.17-2.07.36-4.41-.58-5.65-3.28-4.32-7.07-8.26-10.66-12.35-3.34,3.89-6.86,7.65-9.91,11.76-1,1.32-.91,3.54-1,5.37-.48,10.49,4.81,19.69,11.3,18.57C276.74,255.45,277.21,247.15,277.67,239.44Z"/><path class="cls-1" d="M151.5,173.43c-2.19,6.9-3,18.65-6.85,19.74-9.17,2.62-20,1.3-29.72-.66-4.7-.94-8.06-7.38-12.64-10.4-3.93-2.59-9.82-6.34-12.85-5-3.3,1.45-4.45,8.08-6.26,12.57-.65,1.62-.46,3.57-.72,6H67.29c-3.25-13.94.32-24.31,10.2-30.39,10.86-6.68,24.11-5.47,34,3.12C128.35,183,128.92,183,151.5,173.43Z"/><path class="cls-1" d="M186,203.32c-1.38-13.2,1.36-21.27,10.36-26s17.06-2.77,24.36,4.25c8.86,8.51,17,2.43,25-2.71l2.92,1.45c-1.84,6.41-1.72,15.87-5.93,18.55-7.73,4.91-18.2,4.9-25.65-2.85-6.39-6.64-10.62-7.88-16.33,1.08C198.58,200.41,192,200.94,186,203.32Z"/><path d="M165.84,232.57h-19c1.38-4.88,1.92-9.79,4.27-13.58,1-1.57,7.61-2,8.56-.74C162.44,222,163.57,226.85,165.84,232.57Z"/><path d="M277.67,239.44c-.46,7.71-.93,16-10.84,17.7-6.49,1.12-11.78-8.08-11.3-18.57.08-1.83,0-4,1-5.37,3.05-4.11,6.57-7.87,9.91-11.76,3.59,4.09,7.38,8,10.66,12.35C278,235,277.5,237.37,277.67,239.44Z"/></svg>